<?xml version="1.0" encoding="UTF-8" standalone="no"?>
<!-- Uploaded to: SVG Repo, www.svgrepo.com, Generator: SVG Repo Mixer Tools -->

<svg
   fill="#000000"
   height="800px"
   width="800px"
   version="1.1"
   id="Layer_1"
   viewBox="0 0 512 512"
   xml:space="preserve"
   sodipodi:docname="arrows.svg"
   inkscape:version="1.3.2 (091e20e, 2023-11-25, custom)"
   xmlns:inkscape="http://www.inkscape.org/namespaces/inkscape"
   xmlns:sodipodi="http://sodipodi.sourceforge.net/DTD/sodipodi-0.dtd"
   xmlns="http://www.w3.org/2000/svg"
   xmlns:svg="http://www.w3.org/2000/svg"><defs
   id="defs10" /><sodipodi:namedview
   id="namedview10"
   pagecolor="#505050"
   bordercolor="#eeeeee"
   borderopacity="1"
   inkscape:showpageshadow="0"
   inkscape:pageopacity="0"
   inkscape:pagecheckerboard="0"
   inkscape:deskcolor="#505050"
   inkscape:zoom="1.0438664"
   inkscape:cx="295.05692"
   inkscape:cy="409.53517"
   inkscape:window-width="2560"
   inkscape:window-height="1377"
   inkscape:window-x="448"
   inkscape:window-y="1432"
   inkscape:window-maximized="1"
   inkscape:current-layer="Layer_1" />
<g
   id="g2"
   transform="matrix(0.71260683,0,0,0.71260683,73.572608,73.572671)">
	<g
   id="g1">
		<path
   d="m 501.55,442.133 h -44.641 l -13.843,-13.844 h 23.743 c 5.77,0 10.449,-4.678 10.449,-10.449 0,-5.771 -4.679,-10.449 -10.449,-10.449 h -44.64 l -18.53,-18.53 h 23.744 c 5.771,0 10.449,-4.679 10.449,-10.449 0,-5.771 -4.679,-10.449 -10.449,-10.449 l -44.642,10e-4 -111.963,-111.963 162.418,-162.42 25.988,25.988 c 1.982,1.981 4.649,3.06 7.388,3.06 0.784,0 1.573,-0.088 2.353,-0.269 3.511,-0.811 6.356,-3.375 7.528,-6.783 l 34.979,-101.73 c 1.298,-3.776 0.33,-7.962 -2.493,-10.786 -2.824,-2.824 -7.01,-3.791 -10.786,-2.492 l -101.73,34.979 c -3.407,1.172 -5.972,4.017 -6.782,7.529 -0.811,3.511 0.243,7.193 2.792,9.742 L 418.421,78.807 256,241.223 93.581,78.805 119.569,52.817 c 2.547,-2.548 3.603,-6.23 2.792,-9.742 -0.811,-3.512 -3.375,-6.356 -6.782,-7.529 L 13.847,0.568 C 10.069,-0.73 5.884,0.237 3.061,3.061 0.238,5.885 -0.73,10.071 0.568,13.847 l 34.979,101.73 c 1.172,3.408 4.018,5.972 7.528,6.783 0.781,0.181 1.569,0.269 2.353,0.269 2.739,0 5.407,-1.078 7.388,-3.06 L 78.804,93.581 241.222,256 129.259,367.964 84.617,367.963 c -5.77,0 -10.449,4.678 -10.449,10.449 0,5.77 4.678,10.449 10.449,10.449 h 23.744 l -18.53,18.53 H 45.19 c -5.77,0 -10.449,4.678 -10.449,10.449 0,5.771 4.679,10.449 10.449,10.449 H 68.933 L 55.09,442.133 H 10.449 C 4.68,442.133 0,446.811 0,452.582 c 0,5.771 4.678,10.449 10.449,10.449 h 23.743 l -6.786,6.786 c -4.08,4.08 -4.08,10.697 0,14.777 2.041,2.041 4.715,3.06 7.388,3.06 2.673,0 5.348,-1.02 7.388,-3.06 l 6.785,-6.785 v 23.742 c 0,5.771 4.678,10.449 10.449,10.449 5.77,0 10.449,-4.678 10.449,-10.449 v -44.64 l 13.844,-13.844 v 23.743 c 0,5.771 4.679,10.449 10.449,10.449 5.77,0 10.449,-4.678 10.449,-10.449 v -44.641 l 18.53,-18.53 v 23.744 c 0,5.771 4.678,10.449 10.449,10.449 5.771,0 10.449,-4.679 10.449,-10.449 L 144.034,382.742 256,270.778 l 111.964,111.964 -10e-4,44.641 c 0,5.77 4.678,10.449 10.449,10.449 5.77,0 10.449,-4.678 10.449,-10.449 v -23.744 l 18.53,18.53 v 44.641 c 0,5.771 4.679,10.449 10.449,10.449 5.771,0 10.449,-4.678 10.449,-10.449 v -23.743 l 13.844,13.844 v 44.64 c 0,5.771 4.679,10.449 10.449,10.449 5.77,0 10.449,-4.678 10.449,-10.449 v -23.742 l 6.785,6.785 c 2.041,2.041 4.715,3.06 7.388,3.06 2.674,0 5.348,-1.02 7.388,-3.06 4.08,-4.08 4.08,-10.697 0,-14.777 l -6.786,-6.786 h 23.744 c 5.77,0 10.449,-4.678 10.449,-10.449 0,-5.771 -4.678,-10.449 -10.449,-10.449 z M 484.712,27.29 l -22.58,65.673 -14.157,-14.157 9.503,-9.503 c 4.08,-4.08 4.08,-10.697 0,-14.777 -4.081,-4.081 -10.696,-4.081 -14.778,0 L 433.197,64.028 419.039,49.87 Z M 78.804,64.027 69.301,54.525 c -4.081,-4.081 -10.696,-4.081 -14.777,0 -4.08,4.08 -4.08,10.697 0,14.777 L 64.027,78.805 49.87,92.961 27.29,27.289 92.963,49.869 Z"
   id="path1" />
	</g>
</g>




</svg>
