<?xml version="1.0" encoding="UTF-8" standalone="no"?>
<!-- Uploaded to: SVG Repo, www.svgrepo.com, Generator: SVG Repo Mixer Tools -->

<svg
   width="800px"
   height="800px"
   viewBox="0 0 512 512"
   version="1.1"
   id="svg1"
   sodipodi:docname="bow.svg"
   inkscape:version="1.3.2 (091e20e, 2023-11-25, custom)"
   xmlns:inkscape="http://www.inkscape.org/namespaces/inkscape"
   xmlns:sodipodi="http://sodipodi.sourceforge.net/DTD/sodipodi-0.dtd"
   xmlns="http://www.w3.org/2000/svg"
   xmlns:svg="http://www.w3.org/2000/svg">
  <defs
     id="defs1" />
  <sodipodi:namedview
     id="namedview1"
     pagecolor="#505050"
     bordercolor="#eeeeee"
     borderopacity="1"
     inkscape:showpageshadow="0"
     inkscape:pageopacity="0"
     inkscape:pagecheckerboard="0"
     inkscape:deskcolor="#505050"
     inkscape:zoom="1.0438664"
     inkscape:cx="327.62814"
     inkscape:cy="312.77949"
     inkscape:window-width="2560"
     inkscape:window-height="1377"
     inkscape:window-x="448"
     inkscape:window-y="1432"
     inkscape:window-maximized="1"
     inkscape:current-layer="svg1" />
  <path
     fill="#000000"
     d="m 73.572634,64.989161 34.676276,72.768849 c 3.76916,2.03289 7.44409,4.15048 11.11902,6.35278 V 90.874579 C 104.2913,81.497891 89.026196,72.815773 73.572634,64.989161 Z m 62.756536,12.341313 v 92.699606 c 0,0.16941 0.65959,2.0329 3.20378,4.15048 2.54418,2.11759 6.5018,4.31989 10.27096,5.67515 3.01532,1.10114 5.5595,1.43995 7.25563,1.52466 V 88.714637 c 0,-0.211758 -0.6596,-2.024416 -3.20378,-4.167417 -2.54419,-2.143001 -6.50181,-4.328354 -10.27097,-5.692082 -3.01533,-1.067265 -5.55952,-1.431491 -7.25562,-1.524664 z m 37.69159,51.279556 v 53.53268 c 45.51261,36.76135 83.11,80.63782 111.84983,122.8202 21.01308,30.9168 37.22047,60.90189 48.24526,86.82118 9.32868,21.85354 15.07665,40.57303 16.58431,55.22675 h 87.72721 c -3.20378,-12.87495 -13.09783,-35.23671 -29.211,-61.74892 C 389.23983,352.39693 360.21729,312.50153 324.69295,271.25089 282.38413,222.29221 230.74663,171.47004 174.02076,128.61003 Z m -35.80701,63.27358 V 446.1638 h 16.96121 V 196.71171 c -3.95762,-0.25411 -7.82101,-1.27055 -11.59017,-2.62581 -1.79035,-0.67763 -3.58069,-1.43995 -5.37104,-2.20229 z"
     id="path1"
     style="stroke-width:0.893397" />
</svg>
