<?xml version="1.0" encoding="UTF-8" standalone="no"?>
<!-- Uploaded to: SVG Repo, www.svgrepo.com, Generator: SVG Repo Mixer Tools -->

<svg
   width="800px"
   height="800px"
   viewBox="0 0 24 24"
   fill="none"
   version="1.1"
   id="svg6"
   sodipodi:docname="bullets.svg"
   inkscape:version="1.3.2 (091e20e, 2023-11-25, custom)"
   xmlns:inkscape="http://www.inkscape.org/namespaces/inkscape"
   xmlns:sodipodi="http://sodipodi.sourceforge.net/DTD/sodipodi-0.dtd"
   xmlns="http://www.w3.org/2000/svg"
   xmlns:svg="http://www.w3.org/2000/svg">
  <defs
     id="defs6" />
  <sodipodi:namedview
     id="namedview6"
     pagecolor="#505050"
     bordercolor="#eeeeee"
     borderopacity="1"
     inkscape:showpageshadow="0"
     inkscape:pageopacity="0"
     inkscape:pagecheckerboard="0"
     inkscape:deskcolor="#505050"
     inkscape:zoom="1.47625"
     inkscape:cx="399.6613"
     inkscape:cy="400"
     inkscape:window-width="2560"
     inkscape:window-height="1377"
     inkscape:window-x="448"
     inkscape:window-y="1432"
     inkscape:window-maximized="1"
     inkscape:current-layer="svg6" />
  <path
     d="M11 12.0001C11 13.1046 10.1046 14.0001 9 14.0001C7.89543 14.0001 7 13.1046 7 12.0001C7 10.8955 7.89543 10.0001 9 10.0001C10.1046 10.0001 11 10.8955 11 12.0001Z"
     stroke="#000000"
     stroke-width="2"
     stroke-linecap="round"
     stroke-linejoin="round"
     id="path1"
     style="stroke-width:0.9;stroke-dasharray:none" />
  <path
     d="M17 12.0001C17 13.1046 16.1046 14.0001 15 14.0001C13.8954 14.0001 13 13.1046 13 12.0001C13 10.8955 13.8954 10.0001 15 10.0001C16.1046 10.0001 17 10.8955 17 12.0001Z"
     stroke="#000000"
     stroke-width="2"
     stroke-linecap="round"
     stroke-linejoin="round"
     id="path2"
     style="stroke-width:0.9;stroke-dasharray:none" />
  <path
     d="M14 6.81006C14 7.91463 13.1046 8.81006 12 8.81006C10.8954 8.81006 10 7.91463 10 6.81006C10 5.70549 10.8954 4.81006 12 4.81006C13.1046 4.81006 14 5.70549 14 6.81006Z"
     stroke="#000000"
     stroke-width="2"
     stroke-linecap="round"
     stroke-linejoin="round"
     id="path3"
     style="stroke-width:0.9;stroke-dasharray:none" />
  <path
     d="M8 17.1901C8 18.2946 7.10457 19.1901 6 19.1901C4.89543 19.1901 4 18.2946 4 17.1901C4 16.0855 4.89543 15.1901 6 15.1901C7.10457 15.1901 8 16.0855 8 17.1901Z"
     stroke="#000000"
     stroke-width="2"
     stroke-linecap="round"
     stroke-linejoin="round"
     id="path4"
     style="stroke-width:0.9;stroke-dasharray:none" />
  <path
     d="M14 17.1901C14 18.2946 13.1046 19.1901 12 19.1901C10.8954 19.1901 10 18.2946 10 17.1901C10 16.0855 10.8954 15.1901 12 15.1901C13.1046 15.1901 14 16.0855 14 17.1901Z"
     stroke="#000000"
     stroke-width="2"
     stroke-linecap="round"
     stroke-linejoin="round"
     id="path5"
     style="stroke-width:0.9;stroke-dasharray:none" />
  <path
     d="M20 17.1901C20 18.2946 19.1046 19.1901 18 19.1901C16.8954 19.1901 16 18.2946 16 17.1901C16 16.0855 16.8954 15.1901 18 15.1901C19.1046 15.1901 20 16.0855 20 17.1901Z"
     stroke="#000000"
     stroke-width="2"
     stroke-linecap="round"
     stroke-linejoin="round"
     id="path6"
     style="stroke-width:0.9;stroke-dasharray:none" />
</svg>
