<?xml version="1.0" encoding="UTF-8" standalone="no"?>
<!-- Uploaded to: SVG Repo, www.svgrepo.com, Generator: SVG Repo Mixer Tools -->

<svg
   fill="#000000"
   height="800px"
   width="800px"
   version="1.1"
   id="Layer_1"
   viewBox="0 0 512 512"
   xml:space="preserve"
   sodipodi:docname="flute-svgrepo-com.svg"
   inkscape:version="1.3.2 (091e20e, 2023-11-25, custom)"
   xmlns:inkscape="http://www.inkscape.org/namespaces/inkscape"
   xmlns:sodipodi="http://sodipodi.sourceforge.net/DTD/sodipodi-0.dtd"
   xmlns="http://www.w3.org/2000/svg"
   xmlns:svg="http://www.w3.org/2000/svg"><defs
   id="defs4" /><sodipodi:namedview
   id="namedview4"
   pagecolor="#ffffff"
   bordercolor="#000000"
   borderopacity="0.25"
   inkscape:showpageshadow="2"
   inkscape:pageopacity="0.0"
   inkscape:pagecheckerboard="0"
   inkscape:deskcolor="#d1d1d1"
   inkscape:zoom="1.47625"
   inkscape:cx="400"
   inkscape:cy="400"
   inkscape:window-width="2560"
   inkscape:window-height="1377"
   inkscape:window-x="1912"
   inkscape:window-y="1432"
   inkscape:window-maximized="1"
   inkscape:current-layer="Layer_1" />
<g
   id="g2"
   transform="matrix(0.73932808,0,0,0.73932808,66.732043,66.731823)">
	<g
   id="g1">
		<path
   d="m 428.422,132.378 -27.431,-27.431 c -3.842,-3.842 -8.941,-6.317 -14.374,-6.317 -5.431,0 -10.532,1.754 -14.374,5.596 L 27.278,449.192 c -3.841,3.841 -5.779,9.125 -5.779,14.556 0,5.431 2.204,10.628 6.045,14.467 l 27.475,27.477 0.24,0.238 c 7.93,7.93 21.071,8.17 29,0.24 L 429.224,161.205 c 7.929,-7.928 7.128,-20.898 -0.802,-28.827 z M 109.194,439.029 98.642,449.58 c -2.185,2.185 -4.806,3.52 -7.671,3.52 -2.864,0 -5.85,-1.214 -8.035,-3.399 -4.372,-4.372 -4.493,-11.579 -0.121,-15.951 l 10.552,-10.552 c 4.369,-4.369 11.457,-4.369 15.828,0 4.371,4.373 4.371,11.459 -10e-4,15.831 z M 214.712,333.51 204.161,344.061 c -2.185,2.185 -4.807,3.52 -7.671,3.52 -2.864,0 -5.85,-1.214 -8.036,-3.401 -4.371,-4.37 -4.491,-11.578 -0.121,-15.949 l 10.551,-10.551 c 4.369,-4.369 11.456,-4.37 15.828,10e-4 4.371,4.373 4.371,11.46 0,15.829 z m 52.759,-52.759 -10.552,10.552 c -2.185,2.185 -4.806,3.52 -7.671,3.52 -2.865,0 -5.85,-1.214 -8.036,-3.401 -4.371,-4.37 -4.491,-11.578 -0.121,-15.949 l 10.552,-10.552 c 4.37,-4.37 11.457,-4.369 15.828,0.001 4.372,4.372 4.371,11.459 0,15.829 z m 52.76,-52.759 -10.552,10.552 c -2.185,2.185 -4.807,3.521 -7.671,3.521 -2.864,0 -5.85,-1.214 -8.036,-3.399 -4.37,-4.372 -4.491,-11.579 -0.121,-15.95 l 10.552,-10.552 c 4.369,-4.369 11.456,-4.37 15.828,0 4.372,4.37 4.37,11.457 0,15.828 z m 52.76,-52.76 -10.552,10.552 c -2.185,2.185 -4.807,3.521 -7.671,3.521 -2.864,0 -5.85,-1.214 -8.035,-3.399 -4.37,-4.372 -4.493,-11.579 -0.122,-15.95 l 10.552,-10.552 c 4.372,-4.372 11.456,-4.372 15.828,-0.001 4.369,4.372 4.37,11.458 0,15.829 z"
   id="path1" />
	</g>
</g>
<g
   id="g4"
   transform="matrix(0.73932808,0,0,0.73932808,66.732043,66.731823)">
	<g
   id="g3">
		<path
   d="M 489.939,85.104 C 484.131,60.645 484.061,35.12 489.798,10.541 491.756,2.155 481.509,-3.544 475.419,2.545 l -62.681,62.681 c -5.821,5.821 -5.821,15.256 0,21.077 l 34.327,34.327 c 5.82,5.82 15.256,5.82 21.077,-10e-4 l 16.509,-16.509 c 4.975,-4.973 6.913,-12.172 5.288,-19.016 z"
   id="path2" />
	</g>
</g>
</svg>
