<?xml version="1.0" encoding="UTF-8" standalone="no"?>
<!-- Uploaded to: SVG Repo, www.svgrepo.com, Generator: SVG Repo Mixer Tools -->

<svg
   fill="#000000"
   height="800px"
   width="800px"
   version="1.1"
   id="Capa_1"
   viewBox="0 0 211.727 211.727"
   xml:space="preserve"
   sodipodi:docname="knife.svg"
   inkscape:version="1.3.2 (091e20e, 2023-11-25, custom)"
   xmlns:inkscape="http://www.inkscape.org/namespaces/inkscape"
   xmlns:sodipodi="http://sodipodi.sourceforge.net/DTD/sodipodi-0.dtd"
   xmlns="http://www.w3.org/2000/svg"
   xmlns:svg="http://www.w3.org/2000/svg"><defs
   id="defs1" /><sodipodi:namedview
   id="namedview1"
   pagecolor="#ffffff"
   bordercolor="#000000"
   borderopacity="0.25"
   inkscape:showpageshadow="2"
   inkscape:pageopacity="0.0"
   inkscape:pagecheckerboard="0"
   inkscape:deskcolor="#d1d1d1"
   inkscape:zoom="1.47625"
   inkscape:cx="400"
   inkscape:cy="400"
   inkscape:window-width="2560"
   inkscape:window-height="1377"
   inkscape:window-x="1912"
   inkscape:window-y="1432"
   inkscape:window-maximized="1"
   inkscape:current-layer="Capa_1" />
<path
   d="m 51.71106,96.876175 14.506841,-14.506841 5.728417,-5.728416 5.728417,-5.728417 c 2.237997,-2.240292 2.239526,-5.871398 0,-8.109396 L 48.344506,33.471348 c -5.133554,-5.132791 -13.487623,-5.133555 -18.623471,0.0023 l -0.942758,0.943522 c -2.487258,2.486493 -3.857429,5.793408 -3.857429,9.311353 0,3.517181 1.369406,6.824095 3.856665,9.311354 l 25.27553,25.27553 -10.451378,10.451379 c -1.119381,1.120146 -1.679072,2.588186 -1.679072,4.055462 0,1.467276 0.559691,2.935317 1.679072,4.055463 2.238761,2.237997 5.869868,2.237997 8.109395,-0.0015 z m 58.0763,66.185695 -52.051217,-52.05122 c -1.075034,-1.07579 -1.679071,-2.53466 -1.679071,-4.05546 0,-0.008 0,-0.0161 0,-0.0229 0.0061,-1.5292 0.622388,-2.99189 1.712714,-4.06387 L 83.943727,77.114972 c 2.244879,-2.208942 5.849989,-2.194415 8.076517,0.03211 l 93.107416,93.108188 c 1.46345,1.46345 2.02544,3.60129 1.46728,5.5992 -0.5574,1.99409 -2.14701,3.53324 -4.15792,4.02564 -1.83123,0.44882 -45.1629,10.66929 -72.64966,-16.81824 z m 20.8737,-22.55124 c 2.23876,-2.2403 2.23876,-5.87064 0,-8.11016 L 95.303456,97.042859 c -2.240291,-2.239526 -5.870634,-2.239526 -8.11016,0 -1.119381,1.120146 -1.679072,2.588186 -1.679072,4.055461 0,1.46728 0.559691,2.93532 1.679072,4.05546 l 35.357604,35.35761 c 2.23953,2.23876 5.86987,2.23876 8.11016,-7.6e-4 z"
   id="path1"
   style="stroke-width:0.764605" />
</svg>
