<?xml version="1.0" encoding="UTF-8" standalone="no"?>
<!-- Uploaded to: SVG Repo, www.svgrepo.com, Generator: SVG Repo Mixer Tools -->

<svg
   fill="#000000"
   height="800px"
   width="800px"
   version="1.1"
   id="Capa_1"
   viewBox="0 0 211.727 211.727"
   xml:space="preserve"
   sodipodi:docname="knife-svgrepo-com.svg"
   inkscape:version="1.3.2 (091e20e, 2023-11-25, custom)"
   xmlns:inkscape="http://www.inkscape.org/namespaces/inkscape"
   xmlns:sodipodi="http://sodipodi.sourceforge.net/DTD/sodipodi-0.dtd"
   xmlns="http://www.w3.org/2000/svg"
   xmlns:svg="http://www.w3.org/2000/svg"><defs
   id="defs1" /><sodipodi:namedview
   id="namedview1"
   pagecolor="#ffffff"
   bordercolor="#000000"
   borderopacity="0.25"
   inkscape:showpageshadow="2"
   inkscape:pageopacity="0.0"
   inkscape:pagecheckerboard="0"
   inkscape:deskcolor="#d1d1d1"
   inkscape:zoom="1.47625"
   inkscape:cx="400"
   inkscape:cy="400"
   inkscape:window-width="2560"
   inkscape:window-height="1377"
   inkscape:window-x="1912"
   inkscape:window-y="1432"
   inkscape:window-maximized="1"
   inkscape:current-layer="Capa_1" />
<path
   d="m 35.039243,94.109349 18.973,-18.973 7.492,-7.492 7.492,-7.492 c 2.927,-2.93 2.929,-7.679 0,-10.606 l -38.36,-38.362 c -6.714,-6.7130005 -17.64,-6.7140005 -24.357,0.003 l -1.233,1.234 c -3.253,3.252 -5.04500005,7.577 -5.04500005,12.178 0,4.6 1.79100005,8.925 5.04400005,12.178 l 33.057,33.057 -13.669,13.669 c -1.464,1.465 -2.196,3.385 -2.196,5.304 0,1.919 0.732,3.839 2.196,5.304 2.928,2.927 7.677,2.927 10.606,-0.002 z m 75.955997,86.562001 -68.075997,-68.076 c -1.406,-1.407 -2.196,-3.315 -2.196,-5.304 0,-0.01 0,-0.021 0,-0.03 0.008,-2 0.814,-3.913 2.24,-5.315 l 34.232,-33.682001 c 2.936,-2.889 7.651,-2.87 10.563,0.042 L 209.53024,190.07935 c 1.914,1.914 2.649,4.71 1.919,7.323 -0.729,2.608 -2.808,4.621 -5.438,5.265 -2.395,0.587 -59.067,13.954 -95.016,-21.996 z m 27.3,-29.494 c 2.928,-2.93 2.928,-7.678 0,-10.607 L 92.052243,94.327349 c -2.93,-2.929 -7.678,-2.929 -10.607,0 -1.464,1.465 -2.196,3.385 -2.196,5.304 0,1.919001 0.732,3.839001 2.196,5.304001 l 46.242997,46.243 c 2.929,2.928 7.677,2.928 10.607,-0.001 z"
   id="path1" />
</svg>
