<?xml version="1.0" encoding="UTF-8" standalone="no"?>
<!-- Uploaded to: SVG Repo, www.svgrepo.com, Generator: SVG Repo Mixer Tools -->

<svg
   width="800px"
   height="800px"
   viewBox="0 0 512 512"
   version="1.1"
   id="svg1"
   sodipodi:docname="pistol.svg"
   inkscape:version="1.3.2 (091e20e, 2023-11-25, custom)"
   xmlns:inkscape="http://www.inkscape.org/namespaces/inkscape"
   xmlns:sodipodi="http://sodipodi.sourceforge.net/DTD/sodipodi-0.dtd"
   xmlns="http://www.w3.org/2000/svg"
   xmlns:svg="http://www.w3.org/2000/svg">
  <defs
     id="defs1" />
  <sodipodi:namedview
     id="namedview1"
     pagecolor="#505050"
     bordercolor="#eeeeee"
     borderopacity="1"
     inkscape:showpageshadow="0"
     inkscape:pageopacity="0"
     inkscape:pagecheckerboard="0"
     inkscape:deskcolor="#505050"
     inkscape:zoom="1.47625"
     inkscape:cx="399.6613"
     inkscape:cy="400"
     inkscape:window-width="2560"
     inkscape:window-height="1377"
     inkscape:window-x="448"
     inkscape:window-y="1432"
     inkscape:window-maximized="1"
     inkscape:current-layer="svg1" />
  <path
     fill="#000000"
     d="M 442,32.08 109.9,252.7 C 90,265.9 70.45,268.9 53.86,267 c -12.28,-1.4 -22.98,-5.3 -31.77,-9.6 -4.18,11.3 -3.73,21 -0.16,27.5 4.67,8 14.54,13.6 35.43,10.7 l 22.8,-3.2 -14.01,18.1 c -27.23,35.3 -43.29,105 7.58,167.4 10.57,12.7 22.97,18 36.27,18.9 13.1,1 27,-3 38.2,-9.9 11.2,-6.8 19.3,-16.3 22.2,-25.1 2.9,-9 1.7,-16.6 -7.6,-25.6 -14.4,-13.9 -29.1,-29.4 -37,-47.8 23.3,-15.2 42.8,-29.4 54.1,-46.8 5.9,-9.2 9.3,-19.8 8.8,-30.9 -0.6,-11.1 -4.8,-22.3 -12.4,-34.2 95.2,-68 199.2,-130 296.4,-197.68 z M 161.5,288.1 c 5.7,9.3 8.1,17 8.5,23.6 0.3,7 -1.5,13.2 -5.8,19.8 -7.7,11.9 -23.4,24.2 -44.1,38.2 -0.3,-2.2 -0.5,-4.4 -0.6,-6.8 -1.1,-23.6 11,-48.7 42,-74.8 z"
     id="path1"
     sodipodi:nodetypes="ccccccccccccccccccccccccc" />
</svg>
