<?xml version="1.0" encoding="UTF-8" standalone="no"?>
<!-- Uploaded to: SVG Repo, www.svgrepo.com, Generator: SVG Repo Mixer Tools -->

<svg
   width="800px"
   height="800px"
   viewBox="0 0 512 512"
   version="1.1"
   id="svg1"
   sodipodi:docname="sling.svg"
   inkscape:version="1.3.2 (091e20e, 2023-11-25, custom)"
   xmlns:inkscape="http://www.inkscape.org/namespaces/inkscape"
   xmlns:sodipodi="http://sodipodi.sourceforge.net/DTD/sodipodi-0.dtd"
   xmlns="http://www.w3.org/2000/svg"
   xmlns:svg="http://www.w3.org/2000/svg">
  <defs
     id="defs1" />
  <sodipodi:namedview
     id="namedview1"
     pagecolor="#ffffff"
     bordercolor="#000000"
     borderopacity="0.25"
     inkscape:showpageshadow="2"
     inkscape:pageopacity="0.0"
     inkscape:pagecheckerboard="0"
     inkscape:deskcolor="#d1d1d1"
     inkscape:zoom="1.47625"
     inkscape:cx="400"
     inkscape:cy="400"
     inkscape:window-width="2560"
     inkscape:window-height="1377"
     inkscape:window-x="1912"
     inkscape:window-y="1432"
     inkscape:window-maximized="1"
     inkscape:current-layer="svg1" />
  <path
     fill="#000000"
     d="m 223.07905,54.778754 c -31.60518,0 -63.73711,8.823112 -89.6358,24.74861 C 96.781248,102.04605 72.541833,137.65455 76.141311,182.86752 l 7.892516,24.31843 c 13.87994,-37.39947 36.855153,-69.5314 66.528903,-91.10193 32.3953,-23.607312 72.95528,-34.335514 116.50019,-25.503623 l -8.9548,-31.886113 c -9.39376,-2.133349 -18.9631,-3.415115 -28.70803,-3.792621 -2.10702,-0.08779 -4.21403,-0.122909 -6.32104,-0.122909 z m 53.55322,11.430539 7.46233,26.372766 15.80259,-0.474078 -2.98493,-18.374899 z m 37.22388,13.458539 3.16051,19.472301 c 5.09195,3.107847 8.34026,5.952307 9.92052,8.155887 2.63376,3.60826 2.45818,4.92514 0.52675,8.61242 -3.86285,7.43599 -20.63116,19.55131 -41.17452,31.31546 -20.54337,11.76415 -44.59842,24.05505 -63.56153,37.66284 -9.56934,6.84779 -17.82181,13.95895 -23.87947,21.94804 -5.96986,7.98908 -9.74493,17.29505 -8.60363,27.21557 6.14545,55.13347 54.25556,92.35735 99.29294,115.97344 26.95219,14.04675 53.20205,23.44051 69.97035,28.70804 2.45818,2.37039 10.44727,9.83272 20.89453,17.38285 12.46649,8.9548 27.65453,18.87531 43.45712,16.68051 9.21818,-1.22909 18.78753,-5.96987 26.51324,-12.64208 3.86285,-3.3361 7.19895,-7.28674 9.39376,-12.02752 2.10701,-4.74078 2.89714,-10.62285 0.70233,-16.15376 -4.03844,-10.27168 -14.31012,-15.18804 -24.49401,-17.03168 -5.17974,-0.87792 -10.53506,-1.1413 -16.06596,-1.0535 -5.44312,0.17558 -11.06182,0.61454 -16.50493,1.40467 -17.64623,2.2826 -33.53661,6.76 -39.1553,8.42805 -16.15376,-5.09195 -41.5257,-14.13454 -67.33659,-27.74232 -43.01816,-22.56259 -85.77294,-56.88932 -91.04047,-103.68255 -0.52676,-5.00415 1.22909,-10.0961 5.6187,-15.97817 4.4774,-5.96987 11.67635,-12.2909 20.36778,-18.52415 17.55843,-12.55427 41.26231,-24.84518 62.24464,-36.8727 20.98233,-11.93974 39.50647,-22.65038 47.40777,-37.75063 3.95064,-7.52379 3.77506,-17.47942 -1.75585,-25.11734 -5.17973,-7.137503 -13.51999,-12.800097 -25.89868,-18.383678 z m 74.9745,85.202288 c -11.2374,0 -20.1922,8.9548 -20.1922,20.1922 0,11.2374 8.9548,20.1922 20.1922,20.1922 11.2374,0 20.1922,-8.9548 20.1922,-20.1922 0,-11.2374 -8.9548,-20.1922 -20.1922,-20.1922 z m -62.33243,34.23895 c -11.2374,0 -20.1922,8.9548 -20.1922,20.19219 0,11.2374 8.9548,20.1922 20.1922,20.1922 11.23739,0 20.19219,-8.9548 20.19219,-20.1922 0,-11.23739 -8.9548,-20.19219 -20.19219,-20.19219 z m -260.42667,3.95064 -11.228617,30.55168 14.512044,12.72986 6.04888,-14.5735 z m 344.70714,24.14285 c -11.2374,0 -20.1922,8.9548 -20.1922,20.19219 0,11.2374 8.9548,20.1922 20.1922,20.1922 11.2374,0 20.1922,-8.9548 20.1922,-20.1922 0,-11.23739 -8.9548,-20.19219 -20.1922,-20.19219 z M 51.304909,251.60878 c -1.106181,7.37454 -1.369558,15.80259 -0.702337,24.93297 1.369557,18.61194 7.269191,39.76985 21.447625,57.1527 40.270263,49.42699 72.279283,66.28308 106.869393,72.16516 31.51739,5.26752 64.26387,2.1948 109.91579,9.13038 3.24831,4.30182 8.07688,10.53506 13.95895,16.94389 10.44727,11.41298 23.26493,24.14284 39.2431,25.19635 9.30597,0.52675 19.66544,-2.19481 28.53245,-7.19896 4.38961,-2.54597 8.51584,-5.6187 11.58857,-9.83272 2.98493,-4.21403 4.91636,-9.92052 3.95064,-15.80259 -1.93142,-10.88623 -10.97402,-17.64623 -20.63115,-21.50908 -9.65714,-3.77506 -20.98233,-5.44311 -31.95635,-6.23324 -5.44311,-0.35117 -10.88623,-0.52676 -15.89038,-0.52676 -15.18805,0 -26.9522,1.31689 -26.9522,1.31689 l -7.72571,0.79013 C 239.84735,392.5152 208.59334,394.79779 181.55336,390.2326 150.12377,384.96507 123.17157,371.35729 84.297203,323.68614 72.761313,309.5516 67.555238,291.55421 66.361265,275.31266 66.089109,271.62539 66.07155,268.1137 66.212018,264.68981 Z M 420.26024,369.77703 h 3.51169 c 3.42389,0 6.58441,0.26337 9.39376,0.79013 7.55013,1.31688 11.14961,3.68727 12.55428,7.19895 0.43896,1.1413 0.52675,2.01922 -0.35117,3.86286 -0.87792,1.84363 -2.72155,4.30181 -5.35532,6.58441 -5.26753,4.56519 -13.4322,8.25246 -18.26077,8.9548 -6.49662,0.87792 -20.71895,-5.70649 -32.13193,-13.87116 -3.51169,-2.54597 -6.58441,-5.09195 -9.48155,-7.46233 7.11116,-1.75585 16.06596,-3.68727 25.37193,-4.91636 5.00415,-0.61455 10.00831,-1.05351 14.74908,-1.1413 z M 317.719,411.82947 c 4.65298,0 9.65714,0.17559 14.74908,0.52676 10.00831,0.70233 20.10441,2.37038 27.21557,5.17973 7.02338,2.72156 10.18389,5.79429 10.79844,9.56935 0.26338,1.1413 0.0878,2.01922 -1.1413,3.68727 -1.22909,1.66805 -3.51169,3.68727 -6.58441,5.35532 -6.05766,3.51169 -14.83688,5.53091 -19.66545,5.17974 -6.49662,-0.43896 -19.13869,-9.74493 -28.62024,-20.01661 -2.98493,-3.24831 -5.53091,-6.32104 -7.8135,-9.21818 3.3361,-0.0878 6.93558,-0.26338 11.06181,-0.26338 z"
     id="path1"
     style="stroke-width:0.877922" />
</svg>
