<?xml version="1.0" encoding="UTF-8" standalone="no"?>
<!-- Uploaded to: SVG Repo, www.svgrepo.com, Generator: SVG Repo Mixer Tools -->

<svg
   fill="#000000"
   height="800px"
   width="800px"
   version="1.1"
   id="Layer_1"
   viewBox="0 0 512 512"
   xml:space="preserve"
   sodipodi:docname="spanningtool.svg"
   inkscape:version="1.3.2 (091e20e, 2023-11-25, custom)"
   xmlns:inkscape="http://www.inkscape.org/namespaces/inkscape"
   xmlns:sodipodi="http://sodipodi.sourceforge.net/DTD/sodipodi-0.dtd"
   xmlns="http://www.w3.org/2000/svg"
   xmlns:svg="http://www.w3.org/2000/svg"><defs
   id="defs10" /><sodipodi:namedview
   id="namedview10"
   pagecolor="#505050"
   bordercolor="#eeeeee"
   borderopacity="1"
   inkscape:showpageshadow="0"
   inkscape:pageopacity="0"
   inkscape:pagecheckerboard="0"
   inkscape:deskcolor="#505050"
   inkscape:zoom="1.47625"
   inkscape:cx="391.5326"
   inkscape:cy="347.84081"
   inkscape:window-width="2560"
   inkscape:window-height="1377"
   inkscape:window-x="448"
   inkscape:window-y="1432"
   inkscape:window-maximized="1"
   inkscape:current-layer="g1" />
<g
   id="g2"
   transform="matrix(0.71260683,0,0,0.71260683,73.572608,73.572671)">
	<g
   id="g1">
		
	<path
   style="fill:#000000;stroke:#000000;stroke-width:0;stroke-linecap:round;stroke-linejoin:round;stroke-dasharray:none"
   d="M 8.1172366,23.44124 35.094777,-24.849738 199.41986,59.380911 190.67988,74.74929 211.05517,84.810225 c 12.57375,7.350622 13.00447,16.965195 8.73554,27.455985 l -41.25473,75.85087 214.3095,108.14637 -59.55926,109.8206 12.8103,8.06739 7.76109,-13.82533 162.80335,86.72566 -30.8045,49.79791 -161.7585,-89.75412 8.90337,-14.73837 -18.56526,-10.72776 c -11.75503,-6.30649 -11.12921,-14.52907 -5.93524,-23.45862 l 51.88358,-92.15151 -216.78419,-108.12185 51.77934,-94.8206 -15.29187,-7.760533 -8.61892,15.243283 z"
   id="path1"
   sodipodi:nodetypes="ccccccccccccccccccccccc" /></g>
</g>




</svg>
